<?xml version="1.0" encoding="utf-8"?>
<!-- Generator: Adobe Illustrator 22.1.0, SVG Export Plug-In . SVG Version: 6.00 Build 0)  -->
<svg version="1.1" id="图层_1" xmlns="http://www.w3.org/2000/svg" xmlns:xlink="http://www.w3.org/1999/xlink" x="0px" y="0px"
	 viewBox="0 0 1366 768" style="enable-background:new 0 0 1366 768;" xml:space="preserve">
<style type="text/css">
	.st0{fill:#1A1A1A;}
	.st1{fill:#333333;}
</style>
<g>
	<g>
		<path class="st0" d="M94.6,571.6h115.4v43.4H47.1V234.7h47.5V571.6z"/>
		<path class="st0" d="M333.6,371.8c17.4,0,34.1,3.3,49.5,9.6c15.4,6.3,28.8,15.2,40.2,26.5s20.2,24.5,26.8,39.9
			c6.6,15.4,9.9,31.8,9.9,49.8c0,17.9-3.3,34.4-9.9,49.8c-6.6,15.4-15.4,28.5-26.8,39.9c-11.4,11.4-24.8,20.2-40.2,26.5
			c-15.4,6.3-32.1,9.6-49.5,9.6c-17.9,0-34.4-3.3-49.8-9.6c-15.4-6.3-28.5-15.2-39.9-26.5c-11.4-11.4-20.2-24.5-26.8-39.9
			c-6.6-15.4-9.9-31.8-9.9-49.8c0-17.9,3.3-34.4,9.9-49.8s15.4-28.5,26.8-39.9s24.5-20.2,39.9-26.5
			C299.2,375.1,315.9,371.8,333.6,371.8z M333.6,415.3c-11.1,0-21.7,2.3-31.6,6.6c-9.9,4.3-18.4,10.4-25.8,17.7
			c-7.3,7.3-12.9,16.2-17.2,26.3c-4.3,10.1-6.3,20.7-6.3,31.8s2,21.7,6.3,31.6c4.3,9.9,9.9,18.7,17.2,26.3
			c7.3,7.6,15.9,13.6,25.8,17.9c9.9,4.3,20.5,6.6,31.6,6.6c11.1,0,21.7-2.3,31.6-6.6c9.9-4.3,18.4-10.4,25.8-17.9
			c7.3-7.6,12.9-16.4,17.2-26.3s6.3-20.5,6.3-31.6s-2-21.7-6.3-31.8s-9.9-18.9-17.2-26.3c-7.3-7.3-15.9-13.4-25.8-17.7
			C355.3,417.6,344.7,415.3,333.6,415.3z"/>
		<path class="st0" d="M541.9,467.8l88.9-88.9H691l-101,98l110.9,138.2h-59.1l-84.4-107.6l-15.7,15.7v91.9h-45.5v-438h45.5v290.7
			H541.9z"/>
		<path class="st0" d="M824.1,371.8c17.4,0,33.8,3.3,49.5,9.6c15.4,6.3,28.8,15.2,40.2,26.5c11.4,11.4,20.2,24.5,26.8,39.9
			c6.6,15.4,9.9,31.8,9.9,49.8c0,17.9-3.3,34.4-9.9,49.8c-6.6,15.4-15.4,28.5-26.8,39.9c-11.4,11.4-24.8,20.2-40.2,26.5
			c-15.4,6.3-32.1,9.6-49.5,9.6c-17.9,0-34.4-3.3-49.8-9.6c-15.4-6.3-28.5-15.2-39.9-26.5c-11.4-11.4-20.2-24.5-26.8-39.9
			c-6.6-15.4-9.9-31.8-9.9-49.8c0-17.9,3.3-34.4,9.9-49.8c6.6-15.4,15.4-28.5,26.8-39.9c11.4-11.4,24.5-20.2,39.9-26.5
			C789.7,375.1,806.4,371.8,824.1,371.8z M824.1,415.3c-11.1,0-21.7,2.3-31.6,6.6c-9.9,4.3-18.4,10.4-25.8,17.7
			c-7.3,7.3-12.9,16.2-17.2,26.3c-4.3,10.1-6.3,20.7-6.3,31.8s2,21.7,6.3,31.6c4.3,9.9,9.9,18.7,17.2,26.3
			c7.3,7.6,15.9,13.6,25.8,17.9c9.9,4.3,20.5,6.6,31.6,6.6s21.7-2.3,31.6-6.6s18.4-10.4,25.8-17.9s12.9-16.4,17.2-26.3
			s6.3-20.5,6.3-31.6s-2-21.7-6.3-31.8s-9.9-18.9-17.2-26.3c-7.3-7.3-15.9-13.4-25.8-17.7C845.8,417.6,835.2,415.3,824.1,415.3z"/>
		<path class="st0" d="M1027.4,378.9v130.6c0,9.3,0.8,18.4,2.3,27c1.5,8.6,4.3,16.2,8.3,22.7c4,6.6,9.6,11.9,16.7,15.7
			s16.2,5.8,27.3,5.8s20.2-2,27.3-5.8c7.1-3.8,12.6-9.1,16.7-15.7c4-6.6,6.8-14.1,8.3-22.7s2.3-17.7,2.3-27V378.9h45.5v135.6
			c0,16.2-2,30.8-5.8,44.2c-3.8,13.4-9.9,24.8-17.9,34.4s-18.4,16.9-31.1,22.2c-12.6,5.3-27.8,7.8-45.2,7.8s-32.6-2.5-45.2-7.8
			c-12.6-5.3-23-12.6-31.1-22.2c-8.1-9.6-14.1-21-17.9-34.4c-3.8-13.4-5.8-28-5.8-44.2V378.9H1027.4z"/>
		<path class="st0" d="M1286.8,615.1h-45.5V421.3h-24.8v-42.4h24.8v-90.4h45.5v90.4h44.5v42.4h-44.5V615.1z"/>
	</g>
	<circle class="st0" cx="293.7" cy="434.2" r="23.5"/>
	<circle class="st0" cx="792.2" cy="434.2" r="23.5"/>
	<g>
		<path class="st1" d="M27.4,713.8l-1.5-5.6c4-1,9.1-2.3,15.4-4v-45.7H26.9V654h32.6v4.5H46.1V703c4.8-1.3,9.1-2.5,13.4-3.8
			c0,1.5,0.3,3.3,0.5,5.1C52.4,706.5,41.6,709.8,27.4,713.8z M61,661.8h12.4c0.3-7.1,0.5-13.4,0.5-18.9h4.8c0,7.3-0.3,13.6-0.5,18.9
			H106c-0.5,21.5-1,38.6-1.8,52c0,9.9-4.8,14.6-13.9,14.6c-2.5,0-6.8,0-12.6,0c-0.3-2.3-0.5-4-1-5.6c1.5,0,3.3,0.3,5.3,0.3
			c1,0,2,0,3.3,0c1,0,2.5,0,4.5,0c6.6,0.3,9.9-2.8,9.9-9.3c0.8-16.7,1.3-32.3,1.5-47.2h-23c0,1.3-0.3,3-0.3,5.3
			c0,1.5-0.3,2.5-0.3,3.5c-0.8,25-9.6,43.4-26.3,55.1c-1.8-1.8-3-3-4-4c16.4-10.6,25-27.8,25.5-51.3c0-0.5,0-1.3,0.3-2
			c0-1,0.3-3.3,0.5-6.3H61.5v-5.1H61z"/>
		<path class="st1" d="M155.2,672.7c-0.8-0.8-1.5-2-2.8-3.5c-0.8-0.8-1.3-1.5-1.5-2c-9.3,0.5-18.7,1-28.5,1.5
			c-2.3,0.3-4.5,0.5-6.3,1l-2-4.8c1.8-1,3.5-2.5,5.3-4.3c5.3-5.8,9.9-11.9,14.1-18.7l4.5,2.3c-5.6,7.6-11.1,14.1-16.7,20.5
			c5.8-0.3,14.4-0.8,26-1.5c-2.5-3-5.1-6.1-7.6-8.6l3.5-3c5.1,5.3,10.4,11.4,15.9,17.9L155.2,672.7z M123.7,729.7h-4.5v-52.3H152
			v42.7c0.3,5.8-2.5,8.8-8.1,8.8c-2.8,0-5.3,0.3-8.1,0.3c-0.3-1.5-0.5-3.3-1-4.8c2.3,0.3,5.1,0.3,8.1,0.3c3.3,0,4.8-1.3,4.8-4.3
			v-10.1h-23.7v19.4H123.7z M123.7,681.8v10.1h23.7v-10.1H123.7z M123.7,695.9V706h23.7v-10.1H123.7z M162.8,687.3h4.5v15.9
			c9.6-3.5,18.2-7.8,26.3-12.9l2.8,4.3c-9.9,5.3-19.4,9.9-29,13.6v8.6c-0.3,4.5,2,6.8,6.6,6.6H184c4.5,0,6.8-1.8,7.6-5.3
			c0.5-2.3,0.8-5.6,1-9.9c1.5,0.8,3,1.3,4.5,1.5c-0.3,3.8-0.8,7.1-1.3,9.3c-1,6.1-4.8,8.8-11.4,8.8h-11.6
			c-7.1,0.3-10.4-3.3-10.1-10.6L162.8,687.3L162.8,687.3z M162.8,642.6h4.5V660c8.8-3.5,16.9-7.6,24.5-12.1l2.8,4.3
			c-9.1,4.8-18.2,9.1-27.3,12.9v5.8c-0.3,4.3,2,6.6,6.6,6.3h9.9c4.3,0,6.8-1.8,7.6-5.3c0.5-2.8,1-6.1,1.3-9.9c1.5,0.8,3,1.3,4.5,1.8
			c-0.5,3.8-1,7.1-1.5,9.3c-1.3,6.1-5.1,8.8-11.4,8.8h-11.1c-7.1,0.3-10.6-3.3-10.4-10.1V642.6z"/>
		<path class="st1" d="M210.1,674.2l-1.8,17.2h18.2c-0.3,9.6-0.8,17.9-1.3,25c-0.3,4.8-1.5,8.1-3.3,9.9c-1.8,1.8-4.8,2.8-9.3,2.8
			c-1,0-2.3,0-3.3,0c-0.5,0-1,0-1.5,0s-1.3,0-2,0c-0.3-2-0.8-3.8-1.3-5.3c2.8,0.3,5.3,0.3,7.8,0.3c3,0,5.1-0.5,6.3-1.8
			c1.3-1,2-3.3,2.3-6.6c0.5-5.8,0.8-12.4,1-20.2h-18.2l2.5-25.8h17.2V652h-19.7v-4.3h23.7v26.5L210.1,674.2L210.1,674.2z
			 M234.3,681.8h21.2v-11.9h-17.7v-22.5h39.9v22.5h-17.7v11.9h21.2v24.5h-21.2v14.6c6.8-0.3,12.1-0.5,15.7-0.8
			c-1.3-1.8-3-4.3-5.3-7.8l4-2.3c3.8,5.8,7.8,11.6,11.6,18.2l-4,2.5c-0.5-0.8-1.3-2-2-3.5c-0.5-1-1-1.8-1.3-2.3
			c-17.9,0.8-34.1,1.8-48.7,2.8l-0.8-5.6c6.6-0.3,15.4-0.5,26.3-1v-14.9h-21.2L234.3,681.8L234.3,681.8z M238.8,686v15.7h16.7V686
			H238.8z M242.1,651.7v13.9h31.1v-13.9H242.1z M276.5,686h-16.7v15.7h16.7V686z"/>
		<path class="st1" d="M294.2,730.3c-1.8-2.3-3-3.8-3.8-4.5c24-12.4,36.6-30.1,37.9-52.8h-37.6v-5.1h38.1c0.3-3.3,0.5-6.8,0.5-10.6
			c0-1.8,0-3.8,0-6.1c0-2,0-4.8,0-8.3h5.1c0,6.6-0.3,14.9-0.5,25h38.4v5.1h-38.1c3.3,23.7,16.4,40.7,38.9,50.8c-1.8,2.5-3,4-3.5,5.1
			c-21.7-11.1-34.4-27-38.1-47.7C328.8,701.7,316.4,718.1,294.2,730.3z"/>
		<path class="st1" d="M380.8,657.8h9.1c1.8-5.6,3-10.6,4-14.9l4.8,1c-0.3,1-1,3-1.8,5.8c-1,3.8-2,6.6-2.5,8.1h17.7v71h-4.5v-7.6
			h-22v8.1H381v-71.5H380.8z M385.6,662.3v24.8h22.2v-24.8H385.6z M385.6,691.4v25.3h22.2v-25.3H385.6z M419.9,677.7
			c-1-0.8-2.3-1.8-4-2.8c5.3-9.1,9.9-19.7,13.4-32.1l4.8,1.3c-1.5,4.8-3.3,9.3-4.8,13.4h28.8c-0.3,21.5-0.8,39.9-1.5,55.8
			c0,10.4-5.1,15.4-14.9,15.2c-1.8,0-3.8,0-5.8,0.3c-1,0-2.3,0-3.5,0c-1,0-2.5,0-4.5,0c-0.3-1.8-0.8-3.5-1-5.1
			c4.5,0.3,9.3,0.3,14.1,0.3c7.3,0.5,10.9-3.3,11.1-11.1c0.5-9.9,1-26.8,1.5-50.5h-25.8C424.7,668.1,422.5,673.4,419.9,677.7z
			 M423.7,681.8l3.5-2.8c4,5.3,8.6,11.6,14.1,19.2l-3.8,3C432.6,694.1,428,687.6,423.7,681.8z"/>
		<path class="st1" d="M466.7,666.1v-4.8h25v5.3c-3,6.1-6.3,11.1-9.1,15.4v48.2H478v-42.2c-3,3.5-6.6,7.6-11.1,11.9
			c-0.5-1.5-1-3.3-2-5.6c8.3-6.6,15.7-15.9,22-28.3H466.7z M474.2,645.4l4.3-2c1,1.8,3,5.8,6.1,11.9c0.5,1,1,1.8,1.3,2.3l-4.5,2.3
			C478.3,652.7,475.8,648.2,474.2,645.4z M484.6,686.8l3.3-2.8c2.5,2.8,5.8,6.6,9.6,11.1l-3.8,3
			C491.2,695.1,488.1,691.1,484.6,686.8z M519,660h4.5c0,8.8-0.3,16.4-0.8,22.7c-0.3,21.5-10.4,37.4-30.6,47.7
			c-1.3-1.5-2.5-2.8-3.5-4c20-9.9,29.8-24.5,29.6-43.9C518.7,676.7,519,669.4,519,660z M500.5,646.9h41.7v52.8h-4.5v-48h-32.3v49.5
			h-4.5v-54.3H500.5z M522.2,694.6h4.5v22c0,2.5,0.5,4.3,1.3,5.3c0.8,1,2.5,1.5,5.1,1.5h3.5c4,0,6.1-1.8,6.8-5.8
			c0.5-2.8,0.8-6.6,1-11.1c2,0.8,3.3,1.3,4.5,1.8c-0.3,3.5-0.5,7.1-1,10.4c-0.8,6.3-4.3,9.3-11.1,9.1h-5.1
			c-6.6,0.3-9.9-3.5-9.6-10.9V694.6z"/>
		<path class="st1" d="M574.3,642.6h4.5V657h11.9v4.3h-11.9v14.6h13.4v4.3H553v-4.3h6.8v-24.8h4.5v24.8h10.1v-33.3H574.3z
			 M557.3,710l-4-2.3c2.8-4.8,5.3-10.9,7.8-18.4l4,1.5C562.4,699.2,559.6,705.5,557.3,710z M556.6,731c-0.8-1.5-1.8-2.8-2.8-4
			c15.4-7.1,26-18.7,32.1-34.6l3.8,2C583.1,711.1,572,723.2,556.6,731z M571.5,684h4.5v23h-4.5V684z M612.2,677.7h4.5v6.8
			c0,12.4-1.3,21.5-3.8,27l2.8-3.3c8.6,6.6,15.7,12.4,21.7,17.2l-3.3,4c-6.1-5.3-13.1-11.1-21.5-17.4c-3,7.1-10.9,13.4-23.5,18.9
			c-1.3-2-2.3-3.5-3-4.5c11.6-4.8,18.7-9.6,21.5-14.6c3.3-4.5,4.8-13.6,4.5-27.3L612.2,677.7L612.2,677.7z M596,665.6h12.9l2.8-13.6
			h-19.4v-4.3h44.5v4.3h-20.7l-3,13.6h19.7v45.5h-4.5v-41.2h-28v41.2h-4.5v-45.5H596z"/>
		<path class="st1" d="M662.2,642.6h4.5V657h11.9v4.3h-11.9v14.6h13.4v4.3h-39.4v-4.3h6.8v-24.8h4.5v24.8h10.1V642.6z M645.2,710
			l-4-2.3c2.8-4.8,5.3-10.9,7.8-18.4l4,1.5C650,699.2,647.5,705.5,645.2,710z M644.5,731c-0.8-1.5-1.8-2.8-2.8-4
			c15.4-7.1,26-18.7,32.1-34.6l3.8,2C670.8,711.1,659.9,723.2,644.5,731z M659.1,684h4.5v23h-4.5V684z M700,677.7h4.5v6.8
			c0,12.4-1.3,21.5-3.8,27l2.8-3.3c8.6,6.6,15.7,12.4,21.7,17.2l-3.3,4c-6.1-5.3-13.1-11.1-21.5-17.4c-3,7.1-10.9,13.4-23.5,18.9
			c-1.3-2-2.3-3.5-3-4.5c11.6-4.8,18.7-9.6,21.5-14.6c3.3-4.5,4.8-13.6,4.5-27.3L700,677.7L700,677.7z M683.6,665.6h12.9l2.8-13.6
			h-19.4v-4.3h44.5v4.3h-20.7l-3,13.6h19.7v45.5h-4.5v-41.2h-28v41.2h-4V665.6z"/>
		<path class="st1" d="M765.7,723.7c3.8,0,7.8,0,11.9,0c4,0,8.1,0,11.9,0c8.1,0,15.7-0.3,23.2-0.3c-0.5,1.5-1,3.3-1.5,5.1
			c-13.1,0-22.7,0-29,0c-7.1,0-12.9,0-16.9-0.3c-11.1,0.3-18.9-3.5-24-11.6c-3,3.3-6.3,7.3-9.9,12.6l-3-4c4.3-5.3,8.1-9.6,11.1-12.9
			v-32.6h-10.1v-4.5H744v37.9C748,720.1,755.4,723.9,765.7,723.7z M742.5,663.1c-3.5-5.6-7.3-10.6-10.9-15.4l3.8-2.5
			c4,5.3,7.6,10.1,11.1,14.9L742.5,663.1z M757.4,668.1h18.2l2-9.6h-24.8v-4.3h18.4c-2.5-3.5-5.1-6.6-7.8-9.6l3.5-2.8
			c1.8,1.8,4.3,4.8,7.6,8.6c0.3,0.5,0.8,0.8,0.8,1l-3.5,2.5h15.2l7.8-12.1l4.3,2.5l-7.6,9.9h19.7v4.3h-29.3l-2.5,9.6h25.3v45.5h-48
			v-45.5H757.4z M761.9,672.4v9.6h38.9v-9.6H761.9z M761.9,686v9.6h38.9V686H761.9z M761.9,699.7v9.6h38.9v-9.6H761.9z"/>
		<path class="st1" d="M817.2,695.1h14.1c1-1.5,2.3-3.8,3.8-6.6c0-0.3,0.3-0.3,0.3-0.5l4.5,1.5c-1,1.8-2,3.8-3.3,5.6h21.2
			c-1,8.6-4.3,15.4-9.6,20.5c3.8,1.8,6.8,3.3,9.6,4.5l-3,4c-3.3-1.8-6.8-3.5-10.4-5.3c-6.3,4.8-14.9,8.8-25.5,11.9
			c-0.5-1.3-1.3-2.8-2.5-4.5c9.9-2.5,17.7-5.8,23.5-9.6c-4.3-2.3-10.1-5.1-17.2-8.3c2.3-3.3,4.3-6.3,6.1-8.8h-11.6L817.2,695.1
			L817.2,695.1z M838.5,643.1h4.5v20.7h17.7v4H843v7.8l2-2.5c4.5,2.8,9.1,6.1,13.6,9.3l-2.8,3.8c-2-1.8-6.3-5.1-13.1-9.6v9.3h-4.5
			v-13.9c-4.3,6.3-10.6,11.6-18.7,15.9c-0.5-1.3-1.5-2.5-3-4.3c8.1-3.5,14.9-8.8,20.7-16.2h-19.4v-4h20.5v-20.5H838.5z M820.8,649.7
			l3-2.8c4.8,4.5,8.1,8.3,10.1,10.6l-3.5,3C828.9,658.8,825.6,655,820.8,649.7z M828.9,706.8c5.6,2.5,10.6,4.5,14.9,6.6
			c4.3-3.8,7.3-8.3,8.8-14.1h-18.7C832.7,701.5,830.9,704,828.9,706.8z M860.4,649.7c-3.8,4.3-7.1,8.1-10.4,11.1l-3.3-3
			c3-2.8,6.3-6.3,10.1-10.6L860.4,649.7z M856.4,727c9.1-7.3,15.7-14.1,19.7-20.2c-4.5-8.1-7.6-18.9-9.1-32.3
			c-0.3,0.3-0.5,1-0.8,1.5c-1.5,3-2.8,5.1-3.5,6.6c-1.3-1.3-2.3-2.3-3.5-3.3c6.6-10.4,11.6-23,15.2-37.9l4.5,0.8
			c-1.5,5.6-3,11.1-5.1,16.4h26v4.5h-7.1c-1.8,19.7-5.6,34.1-10.9,43.7c3.8,6.1,10.1,12.4,18.7,18.7c-1.3,1.5-2.5,3-3.3,4
			c-8.3-6.6-14.4-12.6-18.2-18.4c-4,6.3-10.4,12.6-18.9,19.4C858.7,729.7,857.7,728.5,856.4,727z M870,667.6
			c1.8,15.4,4.5,27,8.8,34.6c4.5-8.3,7.6-21.2,9.1-38.9h-16.2C871.3,664.3,870.8,665.6,870,667.6z"/>
		<path class="st1" d="M904.9,696.9l-0.8-5.3c2.5-0.8,6.6-2,11.9-3.5v-23.2h-10.9v-4.3H916v-17.7h4.5v17.7h9.3v4.3h-9.3v21.7
			c2-0.8,5.1-1.5,8.8-3c0,1.5,0,3,0.3,4.8c-1,0.3-3,1-5.8,2c-1.5,0.5-2.5,0.8-3.3,1v28.5c0.3,6.6-2.5,9.6-8.3,9.6c-1.8,0-4,0-6.6,0
			c-0.3-1.5-0.5-3.3-1-5.1c3.3,0.3,5.3,0.3,6.6,0.3c2,0,3.3-0.3,4-1s1-2,1-4v-26.8c-2,0.8-5.1,1.8-9.1,3.3
			C906.2,696.4,905.4,696.7,904.9,696.9z M960.7,674.2h4.5v9.1H988v4.3h-22.7v12.6h17.9V730h-4.5v-5.3h-31.1v5.3H943v-29.8h17.7
			v-12.6H939c-0.3,17.4-4,31.6-11.9,42.4c-1-1-2.5-2-4-3c4.3-6.3,7.3-12.9,8.8-19.4c1.8-6.8,2.5-15.9,2.5-27.8v-31.8h49.3v22.5
			h-44.5v9.1v3.5H961v-8.8H960.7z M939,652.2v13.9h40.2v-13.9H939z M947.6,704.5v15.9h31.1v-15.9H947.6z"/>
		<path class="st1" d="M992.5,650.2h25.8v-7.8h4.5v7.8h22v-7.8h4.5v7.8h26v4.3h-26v5.8h-4.5v-5.8h-22v5.8h-4.5v-5.8h-25.8V650.2z
			 M995.3,664.1h77.3v14.6h-4.8v-10.4h-67.9v10.4h-4.8v-14.6H995.3z M1002.6,703.7h62.9v26.5h-4.5v-4.5h-53.5v4.8h-4.5v-26.8H1002.6
			z M1007.2,708v13.4h53.5V708H1007.2z M1008.7,676.7h50.5v18.7h-50.5V676.7z M1013.2,680.7v10.1h41.2v-10.1H1013.2z"/>
		<path class="st1" d="M1082.7,674.4c-1-1.3-2-2.5-3.3-3.8c5.1-7.8,9.3-17.2,12.4-28.5l4.5,1.3c-1.5,4.8-3,9.1-4.5,12.6h16.7v4.3
			h-18.2C1088,665.3,1085.7,669.9,1082.7,674.4z M1080.2,691.1h12.1v-14.6h-5.8v-4.3h20v4.3h-9.6v14.6h11.9v4.3h-11.9v23.5
			c4.3-3.5,8.1-6.8,10.6-9.1c0.3,1.8,0.8,3.5,1,5.1c-4,3-7.8,6.3-11.6,9.3c-1.3,1-2.5,2.3-3.8,3.5l-3.3-4c1.8-1.8,2.5-4.3,2.5-7.1
			v-21.2h-12.1V691.1z M1112,648.9l3.5-2.5c3.5,4,7.3,8.6,11.1,13.6l-3.8,2.8C1119.1,657.8,1115.5,653,1112,648.9z M1118.6,730.3
			h-4.5v-62.1h20.2v-25.8h4.5v26h20.2v49.5c0.3,7.3-3,11.1-10.4,11.1c-1.8,0-3.3,0-5.1,0.3c-0.8,0-1.5,0-2.3,0c-0.8,0-1.5,0-2.5,0
			c-0.3-1.8-0.8-3.5-1-5.1c2.8,0.3,6.3,0.3,10.1,0.3c4.8,0.3,6.8-2,6.6-6.8v-8.8h-35.9L1118.6,730.3L1118.6,730.3z M1118.6,672.9
			v13.6h35.9v-13.6H1118.6z M1118.6,690.8v13.6h35.9v-13.6H1118.6z M1149.6,663.1l-3.8-3c3.3-3.8,7.1-8.3,10.9-13.9l3.8,2.5
			C1157,654,1153.2,658.8,1149.6,663.1z"/>
		<path class="st1" d="M1172.4,646.9h74.8v4.8H1212v40.4h38.9v5.1H1212v33.6h-5.1v-33.6h-38.6v-5.1h38.6v-40.4h-34.6L1172.4,646.9
			L1172.4,646.9z M1177.2,662.8l4-2.8c5.1,6.8,10.4,13.9,15.7,21.5l-4.3,3C1188,678.2,1183,670.9,1177.2,662.8z M1225.2,685
			l-3.8-3.3c6.1-6.8,11.6-13.9,16.4-21.7l4.3,2.8C1236.8,670.1,1231.2,677.5,1225.2,685z"/>
		<path class="st1" d="M1335.3,684.8c-3-3.3-5.3-5.8-7.1-7.6c-25.5,0.8-45.5,1.5-59.6,2.3c-3.3,0.3-6.3,0.5-8.3,1l-2.3-5.6
			c2.5-1,4.5-2.3,6.6-4c10.1-9.1,19.2-18.7,27-28.8l5.1,3c-8.1,9.3-17.7,19.2-28.8,29.6c6.8-0.3,17.9-0.5,33.6-1
			c7.3-0.3,15.2-0.5,23-0.8c-3-3.3-7.6-8.1-13.6-14.4l3.8-3c7.8,7.6,16.2,16.4,25.5,26.3L1335.3,684.8z M1327.4,690.8v39.7h-4.8
			v-6.1h-50.5v6.1h-4.8v-39.7H1327.4z M1272.1,695.6v24.2h50.5v-24.2H1272.1z"/>
	</g>
</g>
</svg>
