<?xml version="1.0" encoding="utf-8"?>
<!-- Generator: Adobe Illustrator 22.1.0, SVG Export Plug-In . SVG Version: 6.00 Build 0)  -->
<svg version="1.1" id="图层_1" xmlns="http://www.w3.org/2000/svg" xmlns:xlink="http://www.w3.org/1999/xlink" x="0px" y="0px"
	 viewBox="0 0 325.4 141.3" style="enable-background:new 0 0 325.4 141.3;" xml:space="preserve">
<style type="text/css">
	.st0{enable-background:new    ;}
	.st1{fill:#1A1A1A;}
	.st2{fill:#333333;}
</style>
<title>未标题-1</title>
<g>
	<g class="st0">
		<path class="st1" d="M20,95h27.7v10.4h-39v-91H20V95z"/>
		<path class="st1" d="M77.9,47.2c4.2,0,8.1,0.8,11.8,2.3c3.7,1.5,6.9,3.6,9.6,6.3c2.7,2.7,4.8,5.9,6.4,9.5
			c1.6,3.7,2.4,7.6,2.4,11.9c0,4.3-0.8,8.2-2.4,11.9c-1.6,3.7-3.7,6.8-6.4,9.5c-2.7,2.7-5.9,4.8-9.6,6.3c-3.7,1.5-7.6,2.3-11.8,2.3
			c-4.3,0-8.2-0.8-11.9-2.3c-3.7-1.5-6.8-3.6-9.5-6.3c-2.7-2.7-4.8-5.9-6.4-9.5c-1.6-3.7-2.4-7.6-2.4-11.9c0-4.3,0.8-8.2,2.4-11.9
			c1.6-3.7,3.7-6.8,6.4-9.5c2.7-2.7,5.9-4.8,9.5-6.3C69.6,48,73.6,47.2,77.9,47.2z M77.9,57.6c-2.7,0-5.2,0.5-7.5,1.6
			c-2.4,1-4.4,2.5-6.2,4.2c-1.7,1.8-3.1,3.9-4.1,6.3c-1,2.4-1.5,4.9-1.5,7.6c0,2.7,0.5,5.2,1.5,7.5c1,2.4,2.4,4.5,4.1,6.3
			c1.7,1.8,3.8,3.2,6.2,4.3c2.4,1,4.9,1.6,7.5,1.6c2.7,0,5.2-0.5,7.5-1.6c2.4-1,4.4-2.5,6.2-4.3c1.7-1.8,3.1-3.9,4.1-6.3
			c1-2.4,1.5-4.9,1.5-7.5c0-2.7-0.5-5.2-1.5-7.6c-1-2.4-2.4-4.5-4.1-6.3c-1.7-1.8-3.8-3.2-6.2-4.2C83.1,58.1,80.5,57.6,77.9,57.6z"
			/>
		<path class="st1" d="M128.3,70.1l21.3-21.3H164l-24.1,23.4l26.6,33.1h-14.1l-20.2-25.7l-3.7,3.7v22h-10.9V0.6h10.9V70.1z"/>
		<path class="st1" d="M196.4,47.2c4.2,0,8.1,0.8,11.8,2.3c3.7,1.5,6.9,3.6,9.6,6.3c2.7,2.7,4.8,5.9,6.4,9.5
			c1.6,3.7,2.4,7.6,2.4,11.9c0,4.3-0.8,8.2-2.4,11.9c-1.6,3.7-3.7,6.8-6.4,9.5c-2.7,2.7-5.9,4.8-9.6,6.3s-7.6,2.3-11.8,2.3
			c-4.3,0-8.2-0.8-11.9-2.3c-3.7-1.5-6.8-3.6-9.5-6.3c-2.7-2.7-4.8-5.9-6.4-9.5c-1.6-3.7-2.4-7.6-2.4-11.9c0-4.3,0.8-8.2,2.4-11.9
			c1.6-3.7,3.7-6.8,6.4-9.5c2.7-2.7,5.9-4.8,9.5-6.3C188.2,48,192.2,47.2,196.4,47.2z M196.4,57.6c-2.7,0-5.2,0.5-7.5,1.6
			c-2.4,1-4.4,2.5-6.2,4.2c-1.7,1.8-3.1,3.9-4.1,6.3c-1,2.4-1.5,4.9-1.5,7.6c0,2.7,0.5,5.2,1.5,7.5c1,2.4,2.4,4.5,4.1,6.3
			c1.7,1.8,3.8,3.2,6.2,4.3c2.4,1,4.9,1.6,7.5,1.6s5.2-0.5,7.5-1.6c2.4-1,4.4-2.5,6.2-4.3c1.7-1.8,3.1-3.9,4.1-6.3
			c1-2.4,1.5-4.9,1.5-7.5c0-2.7-0.5-5.2-1.5-7.6c-1-2.4-2.4-4.5-4.1-6.3c-1.7-1.8-3.8-3.2-6.2-4.2C201.6,58.1,199.1,57.6,196.4,57.6
			z"/>
		<path class="st1" d="M245.7,48.9v31.3c0,2.3,0.2,4.4,0.5,6.5s1,3.9,2,5.4c1,1.6,2.3,2.8,4,3.7c1.7,0.9,3.9,1.4,6.5,1.4
			s4.8-0.5,6.5-1.4c1.7-0.9,3-2.2,4-3.7c1-1.6,1.6-3.4,2-5.4s0.5-4.2,0.5-6.5V48.9h10.9v32.5c0,3.9-0.5,7.4-1.4,10.6
			c-0.9,3.2-2.4,5.9-4.3,8.2c-1.9,2.3-4.4,4.1-7.4,5.3s-6.6,1.9-10.8,1.9c-4.2,0-7.8-0.6-10.8-1.9s-5.5-3-7.4-5.3
			c-1.9-2.3-3.4-5-4.3-8.2c-0.9-3.2-1.4-6.7-1.4-10.6V48.9H245.7z"/>
		<path class="st1" d="M308.4,105.4h-10.9V59h-5.9V48.9h5.9V27.3h10.9v21.6H319V59h-10.6V105.4z"/>
	</g>
	<circle class="st1" cx="67.7" cy="62.1" r="5.6"/>
	<circle class="st1" cx="187" cy="62.1" r="5.6"/>
</g>
<g class="st0">
	<path class="st2" d="M7.1,135.4l-0.4-1.3c1-0.2,2.2-0.5,3.6-0.9v-10.7H6.9v-1.1h7.6v1.1h-3.1v10.4c1.1-0.3,2.1-0.6,3.1-0.9
		c0,0.4,0.1,0.8,0.1,1.2C12.9,133.7,10.4,134.4,7.1,135.4z M14.9,123.3h2.9c0.1-1.6,0.1-3.1,0.1-4.4H19c0,1.7,0,3.2-0.1,4.4h6.5
		c-0.1,5-0.2,9-0.4,12.2c0,2.3-1.1,3.5-3.3,3.4c-0.6,0-1.6,0-3,0c-0.1-0.5-0.1-0.9-0.3-1.3c0.4,0,0.8,0,1.3,0.1c0.2,0,0.5,0,0.8,0
		c0.3,0,0.6,0,1,0c1.5,0.1,2.3-0.6,2.3-2.2c0.2-3.9,0.3-7.6,0.4-11.1h-5.4c0,0.3,0,0.7-0.1,1.2c0,0.3,0,0.6-0.1,0.8
		c-0.2,5.8-2.3,10.1-6.2,12.9c-0.4-0.4-0.7-0.7-0.9-0.9c3.9-2.5,5.8-6.5,6-12c0-0.1,0-0.3,0-0.5c0-0.3,0.1-0.8,0.1-1.5h-2.8V123.3z"
		/>
	<path class="st2" d="M37.1,125.8c-0.1-0.2-0.4-0.5-0.7-0.8c-0.2-0.2-0.3-0.4-0.4-0.5c-2.2,0.1-4.4,0.2-6.7,0.4
		c-0.6,0-1,0.1-1.5,0.2l-0.5-1.1c0.4-0.2,0.8-0.6,1.3-1c1.2-1.3,2.3-2.8,3.3-4.4l1.1,0.5c-1.3,1.7-2.6,3.3-3.9,4.8
		c1.4,0,3.4-0.2,6.1-0.3c-0.6-0.7-1.2-1.4-1.8-2l0.8-0.7c1.2,1.3,2.4,2.7,3.7,4.2L37.1,125.8z M29.7,139.1h-1.1v-12.2h7.7v10
		c0.1,1.4-0.6,2.1-1.9,2.1c-0.6,0-1.3,0-1.9,0c0-0.4-0.1-0.8-0.2-1.1c0.5,0,1.2,0.1,1.9,0.1c0.8,0,1.1-0.3,1.1-1v-2.4h-5.6V139.1z
		 M29.7,127.9v2.4h5.6v-2.4H29.7z M29.7,131.2v2.4h5.6v-2.4H29.7z M38.9,129.2h1.1v3.7c2.2-0.8,4.3-1.9,6.2-3l0.7,1
		c-2.3,1.3-4.6,2.3-6.8,3.2v2c0,1.1,0.5,1.6,1.5,1.6h2.4c1,0,1.6-0.4,1.8-1.2c0.1-0.6,0.2-1.3,0.3-2.3c0.4,0.2,0.7,0.3,1,0.4
		c-0.1,0.9-0.2,1.6-0.3,2.2c-0.2,1.4-1.1,2.1-2.6,2h-2.7c-1.6,0-2.4-0.8-2.4-2.5V129.2z M38.9,118.7H40v4.1c2.1-0.8,4-1.8,5.8-2.9
		l0.6,1c-2.1,1.1-4.2,2.2-6.4,3v1.4c-0.1,1,0.5,1.5,1.5,1.5h2.3c1,0,1.6-0.4,1.8-1.3c0.1-0.6,0.2-1.4,0.3-2.3
		c0.4,0.2,0.7,0.3,1.1,0.4c-0.1,0.9-0.2,1.7-0.4,2.2c-0.3,1.4-1.2,2.1-2.7,2.1h-2.6c-1.7,0-2.5-0.7-2.4-2.3V118.7z"/>
	<path class="st2" d="M50,126.1l-0.4,4h4.3c-0.1,2.3-0.2,4.2-0.3,5.8c-0.1,1.1-0.3,1.9-0.8,2.3c-0.4,0.4-1.1,0.6-2.2,0.7
		c-0.3,0-0.5,0-0.8,0c-0.1,0-0.2,0-0.4,0c-0.1,0-0.3,0-0.5,0c-0.1-0.5-0.2-0.9-0.3-1.2c0.6,0,1.2,0.1,1.8,0.1c0.7,0,1.2-0.1,1.5-0.4
		c0.3-0.3,0.5-0.8,0.5-1.5c0.1-1.3,0.2-2.9,0.2-4.7h-4.3l0.6-6h4v-4.2h-4.5v-1h5.6v6.2H50z M55.7,127.9h5v-2.8h-4.2v-5.3h9.4v5.3
		h-4.1v2.8h5v5.7h-5v3.4c1.6-0.1,2.8-0.1,3.7-0.2c-0.3-0.4-0.7-1-1.2-1.8l0.9-0.5c0.9,1.3,1.8,2.7,2.7,4.2l-0.9,0.6
		c-0.1-0.2-0.3-0.5-0.5-0.8c-0.1-0.2-0.2-0.4-0.3-0.5c-4.2,0.2-8,0.4-11.4,0.7l-0.2-1.3c1.5-0.1,3.6-0.1,6.2-0.2v-3.5h-5V127.9z
		 M56.7,128.9v3.7h3.9v-3.7H56.7z M57.5,120.8v3.2h7.3v-3.2H57.5z M65.6,128.9h-3.9v3.7h3.9V128.9z"/>
	<path class="st2" d="M69.8,139.2c-0.4-0.5-0.7-0.9-0.9-1.1c5.6-2.9,8.6-7,8.9-12.3H69v-1.2h8.9c0.1-0.8,0.1-1.6,0.1-2.5
		c0-0.4,0-0.9,0-1.4c0-0.5,0-1.1,0-2h1.2c0,1.5,0,3.5-0.1,5.9h9v1.2h-9c0.8,5.5,3.8,9.5,9.2,11.9c-0.4,0.6-0.7,1-0.8,1.2
		c-5.1-2.6-8.1-6.3-8.9-11.2C77.9,132.6,75,136.4,69.8,139.2z"/>
	<path class="st2" d="M90.1,122.3h2.1c0.4-1.3,0.7-2.5,1-3.5l1.1,0.3c-0.1,0.3-0.2,0.7-0.4,1.3c-0.3,0.9-0.5,1.5-0.6,1.9h4.1v16.6
		h-1.1v-1.8h-5.2v1.9h-1.1V122.3z M91.2,123.3v5.8h5.2v-5.8H91.2z M91.2,130.2v5.9h5.2v-5.9H91.2z M99.3,126.9
		c-0.2-0.2-0.5-0.4-1-0.6c1.2-2.1,2.3-4.6,3.1-7.5l1.1,0.3c-0.4,1.1-0.7,2.2-1.1,3.2h6.7c-0.1,5-0.2,9.3-0.4,13
		c0,2.4-1.2,3.6-3.5,3.6c-0.4,0-0.9,0-1.4,0c-0.2,0-0.5,0-0.8,0c-0.3,0-0.6,0-1.1,0c-0.1-0.4-0.2-0.8-0.3-1.2c1.1,0,2.2,0.1,3.3,0.1
		c1.7,0.1,2.6-0.8,2.6-2.6c0.1-2.3,0.2-6.2,0.3-11.8h-6C100.5,124.7,99.9,125.9,99.3,126.9z M100.2,127.9l0.8-0.6
		c0.9,1.2,2,2.7,3.3,4.5l-0.9,0.7C102.3,130.8,101.2,129.3,100.2,127.9z"/>
	<path class="st2" d="M110.3,124.2v-1.1h5.8v1.3c-0.7,1.4-1.5,2.6-2.1,3.6v11.3h-1.1v-9.9c-0.7,0.8-1.6,1.7-2.6,2.8
		c-0.1-0.3-0.3-0.8-0.5-1.3c1.9-1.5,3.7-3.8,5.1-6.6H110.3z M112.1,119.4l1-0.5c0.3,0.4,0.7,1.3,1.4,2.8c0.1,0.3,0.2,0.4,0.3,0.6
		l-1,0.5C113,121.1,112.5,120,112.1,119.4z M114.5,129.1l0.8-0.7c0.6,0.7,1.4,1.5,2.2,2.6l-0.9,0.7
		C116.1,131,115.4,130.1,114.5,129.1z M122.6,122.8h1.1c0,2.1-0.1,3.8-0.2,5.3c0,5-2.4,8.8-7.2,11.2c-0.3-0.4-0.6-0.7-0.8-0.9
		c4.7-2.3,7-5.7,7-10.3C122.5,126.7,122.6,125,122.6,122.8z M118.3,119.7h9.8v12.4H127v-11.2h-7.6v11.6h-1.1V119.7z M123.4,130.9
		h1.1v5.1c0,0.6,0.1,1,0.3,1.2c0.2,0.2,0.6,0.3,1.2,0.3h0.9c0.9,0,1.5-0.4,1.6-1.3c0.1-0.6,0.2-1.5,0.2-2.6c0.4,0.2,0.8,0.3,1,0.4
		c0,0.8-0.1,1.6-0.2,2.4c-0.1,1.5-1,2.2-2.6,2.1h-1.2c-1.5,0-2.3-0.8-2.3-2.5V130.9z"/>
	<path class="st2" d="M135.6,118.8h1v3.4h2.8v1h-2.8v3.4h3.1v1h-9.2v-1h1.6v-5.8h1v5.8h2.4V118.8z M131.6,134.5l-1-0.5
		c0.6-1.1,1.2-2.6,1.8-4.3l1,0.4C132.8,132,132.2,133.4,131.6,134.5z M131.5,139.4c-0.2-0.3-0.4-0.6-0.7-1c3.6-1.7,6.1-4.4,7.5-8.1
		l0.9,0.5C137.7,134.8,135.1,137.6,131.5,139.4z M134.9,128.4h1v5.4h-1V128.4z M144.5,127h1.1v1.6c0,2.9-0.3,5-0.9,6.3l0.6-0.7
		c2,1.5,3.7,2.9,5.1,4l-0.8,0.9c-1.4-1.2-3.1-2.6-5-4.1c-0.7,1.7-2.6,3.2-5.5,4.4c-0.3-0.5-0.5-0.8-0.7-1.1c2.7-1.1,4.4-2.2,5-3.4
		c0.8-1.1,1.1-3.2,1.1-6.4V127z M140.7,124.1h3l0.6-3.2h-4.5v-1h10.5v1h-4.8l-0.7,3.2h4.6v10.6h-1.1v-9.6h-6.6v9.6h-1.1V124.1z"/>
	<path class="st2" d="M156.3,118.8h1v3.4h2.8v1h-2.8v3.4h3.1v1h-9.2v-1h1.6v-5.8h1v5.8h2.4V118.8z M152.3,134.5l-1-0.5
		c0.6-1.1,1.2-2.6,1.8-4.3l1,0.4C153.5,132,152.8,133.4,152.3,134.5z M152.1,139.4c-0.2-0.3-0.4-0.6-0.7-1c3.6-1.7,6.1-4.4,7.5-8.1
		l0.9,0.5C158.3,134.8,155.7,137.6,152.1,139.4z M155.6,128.4h1v5.4h-1V128.4z M165.2,127h1.1v1.6c0,2.9-0.3,5-0.9,6.3l0.6-0.7
		c2,1.5,3.7,2.9,5.1,4l-0.8,0.9c-1.4-1.2-3.1-2.6-5-4.1c-0.7,1.7-2.6,3.2-5.5,4.4c-0.3-0.5-0.5-0.8-0.7-1.1c2.7-1.1,4.4-2.2,5-3.4
		c0.8-1.1,1.1-3.2,1.1-6.4V127z M161.4,124.1h3l0.6-3.2h-4.5v-1H171v1h-4.8l-0.7,3.2h4.6v10.6H169v-9.6h-6.6v9.6h-1.1V124.1z"/>
	<path class="st2" d="M180.6,137.7c0.9,0,1.8,0,2.8,0c0.9,0,1.9,0,2.8,0c1.9,0,3.7,0,5.4-0.1c-0.1,0.4-0.3,0.8-0.4,1.2
		c-3.1,0-5.4,0-6.8,0c-1.7,0-3,0-4,0c-2.6,0.1-4.5-0.8-5.6-2.7c-0.7,0.7-1.5,1.7-2.3,3l-0.7-0.9c1-1.2,1.9-2.3,2.6-3v-7.6H172v-1.1
		h3.5v8.8C176.5,136.9,178.2,137.7,180.6,137.7z M175.2,123.5c-0.9-1.3-1.7-2.5-2.5-3.6l0.9-0.6c0.9,1.2,1.8,2.4,2.6,3.5
		L175.2,123.5z M178.7,124.7h4.3l0.5-2.2h-5.8v-1h4.4c-0.6-0.8-1.2-1.6-1.8-2.2l0.8-0.6c0.4,0.4,1,1.1,1.8,2
		c0.1,0.1,0.2,0.2,0.2,0.2l-0.8,0.6h3.6l1.8-2.9l1,0.6l-1.8,2.3h4.6v1h-6.9l-0.6,2.2h5.9v10.6h-11.3V124.7z M179.7,125.7v2.2h9.1
		v-2.2H179.7z M179.7,128.9v2.2h9.1v-2.2H179.7z M179.7,132.1v2.3h9.1v-2.3H179.7z"/>
	<path class="st2" d="M192.8,131h3.3c0.2-0.4,0.5-0.9,0.9-1.5c0,0,0-0.1,0.1-0.1l1.1,0.4c-0.3,0.4-0.5,0.9-0.8,1.3h5
		c-0.3,2-1,3.6-2.3,4.8c0.9,0.4,1.6,0.8,2.2,1l-0.7,1c-0.8-0.4-1.6-0.9-2.4-1.3c-1.5,1.1-3.5,2.1-6,2.8c-0.1-0.3-0.3-0.7-0.6-1.1
		c2.3-0.6,4.1-1.4,5.5-2.2c-1-0.5-2.4-1.2-4-1.9c0.6-0.8,1-1.5,1.4-2.1h-2.7V131z M197.7,118.8h1v4.8h4.2v1h-4.2v1.8l0.5-0.6
		c1,0.7,2.1,1.4,3.2,2.2l-0.6,0.9c-0.5-0.4-1.5-1.2-3.1-2.3v2.2h-1v-3.2c-1,1.5-2.5,2.7-4.4,3.7c-0.1-0.3-0.4-0.6-0.7-1
		c1.9-0.8,3.5-2.1,4.9-3.8h-4.6v-1h4.8V118.8z M193.6,120.4l0.7-0.6c1.1,1.1,1.9,1.9,2.4,2.5l-0.8,0.7
		C195.5,122.5,194.7,121.7,193.6,120.4z M195.5,133.7c1.3,0.6,2.5,1.1,3.5,1.6c1-0.9,1.7-2,2.1-3.3h-4.4
		C196.4,132.5,196,133.1,195.5,133.7z M202.9,120.4c-0.9,1-1.7,1.9-2.4,2.6l-0.8-0.7c0.7-0.7,1.5-1.5,2.4-2.5L202.9,120.4z
		 M201.9,138.5c2.2-1.7,3.7-3.3,4.6-4.7c-1.1-1.9-1.8-4.4-2.1-7.6c0,0.1-0.1,0.2-0.2,0.4c-0.4,0.7-0.6,1.2-0.8,1.5
		c-0.3-0.3-0.5-0.5-0.8-0.7c1.5-2.4,2.7-5.4,3.5-8.9l1.1,0.2c-0.3,1.3-0.7,2.6-1.2,3.8h6.1v1.1h-1.7c-0.4,4.6-1.3,8-2.6,10.2
		c0.9,1.4,2.4,2.9,4.4,4.4c-0.3,0.4-0.6,0.7-0.8,1c-1.9-1.5-3.4-3-4.3-4.3c-1,1.5-2.4,3-4.4,4.6
		C202.5,139.1,202.2,138.8,201.9,138.5z M205.2,124.6c0.4,3.6,1.1,6.3,2,8.1c1.1-1.9,1.8-5,2.1-9.1h-3.8
		C205.5,123.8,205.3,124.1,205.2,124.6z"/>
	<path class="st2" d="M213.3,131.5l-0.2-1.2c0.6-0.2,1.5-0.5,2.8-0.9V124h-2.5v-1h2.5v-4.1h1.1v4.1h2.2v1H217v5.1
		c0.5-0.1,1.2-0.4,2.1-0.7c0,0.3,0,0.7,0.1,1.1c-0.2,0.1-0.7,0.2-1.4,0.5c-0.3,0.1-0.6,0.2-0.8,0.3v6.7c0.1,1.5-0.6,2.3-2,2.2
		c-0.4,0-1,0-1.6,0c0-0.4-0.1-0.8-0.2-1.2c0.8,0,1.3,0.1,1.5,0.1c0.5,0,0.8-0.1,0.9-0.2c0.2-0.2,0.3-0.5,0.2-0.9v-6.2
		c-0.5,0.2-1.2,0.4-2.1,0.7C213.6,131.4,213.5,131.4,213.3,131.5z M226.5,126.1h1.1v2.1h5.3v1h-5.3v3h4.2v7h-1.1v-1.3h-7.3v1.3h-1.1
		v-7h4.2v-3h-5.1c0,4.1-1,7.4-2.8,9.9c-0.3-0.2-0.6-0.5-0.9-0.7c1-1.5,1.7-3,2.1-4.6c0.4-1.6,0.6-3.7,0.6-6.5V120h11.5v5.3h-10.5
		v2.2v0.9h5.1V126.1z M221.4,121v3.2h9.4V121H221.4z M223.4,133.2v3.7h7.3v-3.7H223.4z"/>
	<path class="st2" d="M234,120.5h6.1v-1.8h1.1v1.8h5.1v-1.8h1.1v1.8h6.1v1h-6.1v1.4h-1.1v-1.4h-5.1v1.4H240v-1.4H234V120.5z
		 M234.6,123.8h18.2v3.4h-1.1v-2.4h-15.9v2.4h-1.1V123.8z M236.3,133.1h14.7v6.2H250v-1.1h-12.6v1.1h-1.1V133.1z M237.4,134.1v3.2
		H250v-3.2H237.4z M237.8,126.7h11.9v4.3h-11.9V126.7z M238.8,127.7v2.4h9.7v-2.4H238.8z"/>
	<path class="st2" d="M255.2,126.2c-0.2-0.3-0.5-0.6-0.8-0.9c1.2-1.8,2.2-4,2.9-6.7l1,0.3c-0.3,1.1-0.7,2.1-1,3h3.9v1h-4.3
		C256.4,124.1,255.9,125.1,255.2,126.2z M254.6,130.1h2.9v-3.4h-1.4v-1h4.7v1h-2.3v3.4h2.8v1h-2.8v5.5c1-0.9,1.9-1.6,2.5-2.2
		c0.1,0.4,0.2,0.8,0.3,1.2c-1,0.7-1.9,1.5-2.7,2.2c-0.3,0.3-0.6,0.5-0.9,0.9l-0.8-0.9c0.4-0.4,0.6-1,0.6-1.6v-5.1h-2.9V130.1z
		 M262.1,120.2l0.8-0.6c0.8,0.9,1.7,2,2.6,3.2l-0.9,0.7C263.7,122.3,262.9,121.2,262.1,120.2z M263.6,139.3h-1.1v-14.5h4.7v-6.1h1.1
		v6.1h4.8v11.6c0.1,1.7-0.7,2.6-2.4,2.6c-0.4,0-0.8,0-1.2,0c-0.2,0-0.4,0-0.5,0c-0.2,0-0.4,0-0.6,0c-0.1-0.4-0.2-0.8-0.3-1.2
		c0.7,0,1.5,0.1,2.4,0.1c1.1,0.1,1.6-0.5,1.6-1.6v-2.1h-8.4V139.3z M263.6,125.8v3.2h8.4v-3.2H263.6z M263.6,130v3.2h8.4V130H263.6z
		 M270.9,123.6l-0.9-0.7c0.8-0.9,1.6-2,2.5-3.2l0.9,0.6C272.6,121.4,271.7,122.5,270.9,123.6z"/>
	<path class="st2" d="M276.3,119.7h17.6v1.1h-8.2v9.5h9.1v1.2h-9.1v7.9h-1.2v-7.9h-9.1v-1.2h9.1v-9.5h-8.2V119.7z M277.4,123.5
		l0.9-0.6c1.2,1.6,2.4,3.3,3.7,5l-1,0.7C280,127.1,278.8,125.3,277.4,123.5z M288.6,128.7l-0.9-0.8c1.4-1.6,2.7-3.3,3.9-5.1l1,0.7
		C291.4,125.2,290.1,126.9,288.6,128.7z"/>
	<path class="st2" d="M314.5,128.6c-0.7-0.8-1.3-1.4-1.7-1.8c-6,0.2-10.7,0.3-14,0.5c-0.8,0-1.5,0.1-2,0.2l-0.5-1.3
		c0.6-0.2,1.1-0.5,1.5-1c2.4-2.1,4.5-4.4,6.4-6.8l1.2,0.7c-1.9,2.2-4.1,4.5-6.8,6.9c1.6,0,4.2-0.1,7.9-0.2c1.7-0.1,3.5-0.1,5.4-0.2
		c-0.7-0.8-1.8-1.9-3.2-3.4l0.9-0.7c1.8,1.8,3.8,3.8,6,6.1L314.5,128.6z M312.7,130v9.3h-1.1v-1.4h-11.9v1.4h-1.1V130H312.7z
		 M299.7,131.1v5.7h11.9v-5.7H299.7z"/>
</g>
</svg>
