<svg id="图层_1" data-name="图层 1" xmlns="http://www.w3.org/2000/svg" viewBox="0 0 1337.9 525.26"><defs><style>.cls-1{fill:#1a1a1a;}.cls-2{fill:none;}</style></defs><title>1报错</title><path class="cls-1" d="M412.93,276.2q59.67,59.67,59.82,144.47,0,84.81-59.82,144.48T268.45,625q-84.8,0-144.47-59.82T64.15,420.67q0-84.8,59.83-144.47,59.67-59.68,144.47-59.83Q352.81,216.37,412.93,276.2Zm-144.48-1.5c-40.38,0-74.78,14.36-103.19,42.78s-42.78,62.81-42.78,103.19,14.36,74.78,42.78,103.2,62.81,42.77,103.19,42.77,74.78-14.35,103.2-42.77,42.77-62.82,42.77-103.2-14.36-74.78-42.77-103.19C342.93,289.06,308.53,274.7,268.45,274.7Z" transform="translate(-64.15 -216.37)"/><path class="cls-1" d="M638.76,625c-40.38,0-74.78-14.36-103.19-42.77S492.79,519.38,492.79,479s14.36-74.78,42.78-103.2S598.38,333,638.76,333,713.54,347.39,742,375.8s42.77,62.82,42.77,103.2S770.38,553.78,742,582.2C713.24,610.61,678.84,625,638.76,625Zm0-233.31c-24.23,0-44.87,8.67-61.92,25.72s-25.72,37.69-25.72,61.92,8.68,44.87,25.72,61.92,37.69,25.72,61.92,25.72,44.87-8.67,61.92-25.72,25.73-37.69,25.73-61.92-8.68-44.87-25.73-61.92C683.33,400,662.69,391.66,638.76,391.66Z" transform="translate(-64.15 -216.37)"/><path class="cls-1" d="M863.1,362c25.13-19.14,54.14-29,87.65-29,40.38,0,74.78,14.36,103.19,42.77s42.78,62.82,42.78,103.2-14.36,74.78-42.78,103.2S991.13,625,950.75,625c-33.21,0-62.52-9.57-87.65-29V741.63H804.77V333.33H863.1Zm87.65,204.6c24.22,0,44.86-8.67,61.91-25.72s25.73-37.69,25.73-61.92-8.68-44.87-25.73-61.92S975,391.36,950.75,391.36s-44.87,8.67-61.92,25.72S863.1,454.77,863.1,479s8.68,44.87,25.73,61.92S926.52,566.64,950.75,566.64Z" transform="translate(-64.15 -216.37)"/><path class="cls-1" d="M1217.26,501.73c-38-13.16-63.41-23.93-76-32.3s-20.94-23.33-24.83-44.57,1.49-42.18,16.45-62.52,40.68-30.81,76.87-31.7,73.29,9.87,111,32l-26.62,49.66c-31.41-18.55-58.33-28.12-80.47-28.42s-34.4,6.58-37.39,20.64c-2.69,14.06,5.09,25.13,23.93,33.8A428.1,428.1,0,0,0,1260,460.75c21.23,6.29,36.79,13.76,46.36,22.74s15.25,21.83,17.35,38.88c1.79,17-.3,32.91-6.58,47.26s-17.05,26.33-31.71,36.2-35.59,15.85-62.22,18.24q-39.93,3.15-106.78-27.81l26.32-50c32,13.76,58.33,21.54,79.57,23.33,21.23,2.1,35-5.68,41.87-22.73S1255.25,514.9,1217.26,501.73Z" transform="translate(-64.15 -216.37)"/><circle class="cls-1" cx="148.06" cy="271" r="32.3"/><circle class="cls-1" cx="598.24" cy="218.66" r="25.13"/><circle class="cls-2" cx="925.48" cy="194.43" r="27.82"/><polygon class="cls-2" points="1304.44 450.44 1337.9 450.44 1337.9 450.44 1304.44 450.44"/></svg>