<svg xmlns="http://www.w3.org/2000/svg" viewBox="0 0 1191 516.27"><defs><style>.cls-1{isolation:isolate;}.cls-2{fill:#f2f2f2;}.cls-3{fill:#fff;}.cls-4{fill:#e0e0e0;}.cls-5{fill:#565656;}.cls-6{fill:#006ea5;}.cls-7{fill:#9c9c9c;}.cls-8{fill:#db1c0a;}.cls-9{fill:#434343;}.cls-10{fill:#535353;}.cls-11{fill:#c4c4c4;}.cls-12{opacity:0.15;}.cls-12,.cls-24{mix-blend-mode:multiply;}.cls-13{fill:#a91306;}.cls-14{fill:#ffc1a2;}.cls-15{fill:#f7a07e;}.cls-16{fill:#004e77;}.cls-17{fill:#005d8c;}.cls-18{fill:none;stroke:#650702;stroke-linecap:round;stroke-linejoin:round;stroke-width:2px;}.cls-19{fill:#8e4f2c;}.cls-20{fill:#7d4426;}.cls-21{fill:#ffa679;}.cls-22{fill:#003452;}.cls-23{fill:#00456b;}.cls-24{opacity:0.1;}.cls-25{fill:#f04a3d;}.cls-26{fill:#5bc9ec;}.cls-27{fill:#006598;}.cls-28{fill:#fa0;}.cls-29{fill:#ffce4e;}.cls-30{fill:#af1406;}.cls-31{fill:#00d09c;}.cls-32{fill:#ffb400;}.cls-33{font-size:34px;}.cls-33,.cls-34{font-family:MicrosoftYaHeiLight, Microsoft YaHei;}.cls-34{font-size:25px;fill:#666;}.cls-35{font-size:24px;}</style></defs><title>renwu5</title><g class="cls-1"><g id="图层_2" data-name="图层 2"><rect class="cls-2" width="1191" height="515"/></g><g id="图层_1" data-name="图层 1"><rect class="cls-3" x="121.89" y="181.48" width="286.67" height="190.25" rx="15.89" ry="15.89"/><rect class="cls-4" x="121.89" y="187.55" width="286.67" height="185.61" rx="15.7" ry="15.7"/><rect class="cls-5" x="127.93" y="200.5" width="274.58" height="152.88" rx="13.94" ry="13.94"/><rect class="cls-6" x="131.34" y="203.49" width="267.76" height="146.9" rx="13.5" ry="13.5"/><rect class="cls-3" x="143.05" y="203.49" width="244.36" height="146.9"/><rect class="cls-7" x="218.43" y="269.38" width="162.46" height="18.67"/><rect class="cls-7" x="218.43" y="324.97" width="162.46" height="18.67"/><rect class="cls-4" x="218.43" y="295.19" width="162.46" height="9.34"/><rect class="cls-5" x="218.43" y="308.4" width="162.46" height="9.34"/><rect class="cls-4" x="284.25" y="209.61" width="96.64" height="54.08"/><circle class="cls-8" cx="332.57" cy="236.65" r="20.61"/><polygon class="cls-3" points="346.9 236.65 325.41 224.24 325.41 249.05 346.9 236.65"/><circle class="cls-9" cx="265.23" cy="194.62" r="3.95"/><path class="cls-2" d="M312.59,951.27a1.77,1.77,0,0,0-.12-.17l-.12-.16-.12-.17-.12-.16-.12-.17-.12-.17-.12-.16-.12-.17-.13-.16a1.77,1.77,0,0,0-.12-.17,1,1,0,0,0-.12-.16l-.12-.17-.12-.17-.12-.16-.12-.17-.12-.16-.12-.17-.12-.17s-.09-.1-.13-.16a1.77,1.77,0,0,0-.12-.17l-.12-.16-.12-.17-.12-.16-.12-.17-.12-.17-.12-.16-.12-.17-.12-.16-.13-.17a1,1,0,0,0-.12-.16,1.77,1.77,0,0,0-.12-.17l-.12-.17-.12-.16-.12-.17-.12-.16-.12-.17-.12-.16A1.77,1.77,0,0,1,308,945l-.13-.17-.12-.16a1.77,1.77,0,0,0-.12-.17l-.12-.16-.12-.17-.12-.16-.12-.17-.12-.17-.12-.16a1.77,1.77,0,0,1-.12-.17l-.13-.16a1.77,1.77,0,0,0-.12-.17l-.12-.17-.12-.16-.12-.17-.12-.16-.12-.17-.12-.16-.12-.17a1.77,1.77,0,0,1-.12-.17s-.09-.1-.13-.16a1.77,1.77,0,0,0-.12-.17l-.12-.16-.12-.17-.12-.16-.12-.17-.12-.17-.12-.16-.12-.17-.13-.16a1.77,1.77,0,0,0-.12-.17,1,1,0,0,0-.12-.16l-.12-.17-.12-.17-.12-.16-.12-.17-.12-.16-.12-.17-.12-.16-.13-.17a1.77,1.77,0,0,0-.12-.17l-.12-.16-.12-.17-.12-.16-.12-.17-.12-.17-.12-.16-.12-.17-.12-.16-.13-.17-.12-.16a1.77,1.77,0,0,0-.12-.17l-.12-.16-.12-.17-.12-.17-.12-.16-.12-.17-.12-.16-.12-.17-.13-.17-.12-.16a1.77,1.77,0,0,0-.12-.17l-.12-.16-.12-.17-.12-.16L300,934l-.12-.17-.12-.16a1.77,1.77,0,0,1-.12-.17l-.13-.16a1.77,1.77,0,0,0-.12-.17,1,1,0,0,0-.12-.16l-.12-.17-.12-.17-.12-.16-.12-.17-.12-.16-.12-.17-.12-.16-.13-.17a1.77,1.77,0,0,0-.12-.17l-.12-.16-.12-.17-.12-.16-.12-.17-.12-.16-.12-.17-.12-.17-.12-.16-.13-.17-.12-.16-.12-.17-.12-.16-.12-.17-.12-.17-.12-.16-.12-.17-.12-.16-.13-.17a1.77,1.77,0,0,0-.12-.17l-.12-.16-.12-.17-.12-.16-.12-.17-.12-.16-.12-.17-.12-.17-.12-.16-.13-.17-.12-.16a1.77,1.77,0,0,0-.12-.17l-.12-.16a8.34,8.34,0,0,0-6.93-3.72H175a8.35,8.35,0,0,0-6.94,3.72l-.12.16-.12.17-.12.16a1.77,1.77,0,0,0-.12.17l-.13.16-.12.17-.12.17-.12.16-.12.17-.12.16-.12.17-.12.16a685588973338.89,685588973338.89,0,0,0-.24.34s-.09.1-.13.16l-.12.17-.12.16-.12.17-.12.16-.12.17-.12.17-.12.16a1.77,1.77,0,0,0-.12.17l-.12.16-.13.17-.12.17-.12.16-.12.17-.12.16-.12.17-.12.16-.12.17a1.77,1.77,0,0,0-.12.17s-.09.1-.13.16a1.77,1.77,0,0,1-.12.17l-.12.16-.12.17-.12.16-.12.17-.12.17-.12.16-.12.17-.12.16-.13.17-.12.16-.12.17-.12.17-.12.16-.12.17-.12.16-.12.17-.12.16a1.77,1.77,0,0,0-.12.17l-.13.17-.12.16-.12.17-.12.16L161,936l-.12.17-.12.16-.12.17-.12.16a1.77,1.77,0,0,0-.12.17l-.13.16-.12.17-.12.16-.12.17-.12.17-.12.16-.12.17-.12.16a548471178640.29,548471178640.29,0,0,1-.24.34s-.09.1-.13.16l-.12.17-.12.16-.12.17-.12.16-.12.17-.12.17-.12.16a1.77,1.77,0,0,0-.12.17l-.12.16-.13.17-.12.16-.12.17-.12.17-.12.16-.12.17-.12.16-.12.17-.12.16a1.77,1.77,0,0,0-.12.17l-.13.17-.12.16-.12.17-.12.16-.12.17-.12.17-.12.16-.12.17-.12.16a1.77,1.77,0,0,0-.12.17l-.13.16-.12.17-.12.17-.12.16-.12.17-.12.16-.12.17-.12.16a1.77,1.77,0,0,0-.12.17l-.13.17c0,.05-.08.1-.12.16l-.12.17-.12.16-.12.17-.12.16-.12.17-.12.17a1,1,0,0,0-.12.16,1.77,1.77,0,0,0-.12.17l-.13.16a1.77,1.77,0,0,1-.12.17l-.12.16-.12.17-.12.17-.12.16-.12.17-.12.16a1.77,1.77,0,0,0-.12.17l-.12.16-.13.17-.12.17-.12.16-.12.17-.12.16-.12.17-.12.17-.12.16a1.77,1.77,0,0,0-.12.17l-.12.16-.13.17-.12.16-.12.17-.12.17-.12.16-.12.17-.12.16-.12.17a10.67,10.67,0,0,0-2,6.15,10.8,10.8,0,0,0,10.77,10.77H303.78a10.8,10.8,0,0,0,10.77-10.77A10.67,10.67,0,0,0,312.59,951.27Z" transform="translate(34 -517)"/><circle class="cls-7" cx="265.23" cy="194.62" r="1.72"/><path class="cls-7" d="M241.48,711.62a1.72,1.72,0,1,1-1.71-1.72A1.7,1.7,0,0,1,241.48,711.62Z" transform="translate(34 -517)"/><circle class="cls-10" cx="265.23" cy="362.94" r="6.23"/><circle class="cls-3" cx="265.23" cy="362.94" r="3.16"/><polygon class="cls-11" points="325.54 424.57 204.91 424.57 226.13 373.16 304.32 373.16 325.54 424.57"/><path class="cls-7" d="M202.17,901h58.11a13.38,13.38,0,0,1,11.58,6.66l19.68,33.91L274.79,901h0l-4.47-10.84H192.13L187.66,901h0l-16.75,40.57,19.68-33.91A13.39,13.39,0,0,1,202.17,901Z" transform="translate(34 -517)"/><path class="cls-3" d="M303.78,968.19H158.67a10.8,10.8,0,0,1-10.77-10.77h0a10.81,10.81,0,0,1,10.77-10.77H303.78a10.81,10.81,0,0,1,10.77,10.77h0A10.8,10.8,0,0,1,303.78,968.19Z" transform="translate(34 -517)"/><path class="cls-2" d="M303.78,959H158.67A10.79,10.79,0,0,1,149,952.8a10.74,10.74,0,0,0,9.71,15.39H303.78a10.74,10.74,0,0,0,9.71-15.39A10.79,10.79,0,0,1,303.78,959Z" transform="translate(34 -517)"/><path class="cls-12" d="M306.82,700.13l.88,2a2,2,0,0,0,2.55.9,1.83,1.83,0,0,0,1.15-2.36L309.83,697H297.74C301.24,698.08,304.61,699.29,306.82,700.13Z" transform="translate(34 -517)"/><path class="cls-12" d="M122.72,783.71,126.79,838s1.65.88,4.51,2c0,.4,0,.8,0,1.2l2,27H164l-.9-12,3-.46.94,12.42h30.64l-2.58-34.35a9.46,9.46,0,0,0-.2-1.33c2.47-1.68,3.86-2.84,3.86-2.84l-3.34-44.49,22.09,10.46a11.08,11.08,0,0,0,13.76-4l.4-.64c.15-.24.27-.47.39-.71l27.27-43.46-3-1.4,1.74-2.78a7.77,7.77,0,0,0,4.28-1.12l.08.19a4.13,4.13,0,0,0,5.36,1.89,3.86,3.86,0,0,0,2.43-5l-.83-1.94,1.87-1.29a8.28,8.28,0,0,0,1.21-1.06l4.76-3.29a2,2,0,0,0,.54-2.85l-.26-.33a2.37,2.37,0,0,0-3.13-.31l.52-.36a2.15,2.15,0,0,0,.59-3.15,2.61,2.61,0,0,0-3.45-.35,2.14,2.14,0,0,0,.6-3.14,2.61,2.61,0,0,0-3.45-.35l-1.17.8h0l.46-.31a2.15,2.15,0,0,0,.6-3.15,2.61,2.61,0,0,0-3.45-.35l-3.52,2.43-1.41-3.28c10.19-4.49,14.78-8.6,19.33-11h-54.8A4.07,4.07,0,0,0,225,709l2.37,5.55a4.85,4.85,0,0,0,6.27,2.22,5.91,5.91,0,0,0,1.26-.7c3.45,3.28,9.08,5.68,18,3.22l.12.28a2.32,2.32,0,0,0-1.84,1.74l-.08.41a1.94,1.94,0,0,0,0,.59l-1.14,6a6.2,6.2,0,0,0-1.61,4.9l-4.06,6.48-3-1.41-22.61,36.05-33.7-16a28.43,28.43,0,0,0-15.43-5.28v-.19l.37-.08h0c16.24-3.95,26.75-19,23.36-33.48l-3.28-14H121.81a52.92,52.92,0,0,0,1.26,9.69c-1.34,1-2.21,2.59-1.81,5.16.56,3.55,3.18,5.7,5.88,7,2.61,4.24,6.33,3.27,6.33,3.27h0l.76,3.24a25.38,25.38,0,0,0,13.67,16.79,8.84,8.84,0,0,0,0,1.63l.23,3.06a31.61,31.61,0,0,0-10.72,3.62,12.54,12.54,0,0,0-1.87-.51l-41.39-7.46L107,712.56l-3.29-.74,2.19-6.49h-5a13,13,0,0,0-13,13v52.57l34.83,9.41A22.56,22.56,0,0,0,122.72,783.71Z" transform="translate(34 -517)"/><rect class="cls-13" x="154.92" y="755" width="75.47" height="20.86" rx="10.43" ry="10.43" transform="translate(400.99 -521.38) rotate(26.89)"/><path class="cls-14" d="M253.66,720.85l-26,51.3c-2.59,5.11-7.41,7.93-10.71,6.25l-.48-.24c-3.29-1.67-3.87-7.22-1.28-12.33l26-51.3Z" transform="translate(34 -517)"/><path class="cls-15" d="M238,720.92a6.36,6.36,0,0,0,1.33,1.73l4.45,4.18a8.22,8.22,0,0,0,5.85,2.08l4.08-8.06-12.47-6.32Z" transform="translate(34 -517)"/><path class="cls-13" d="M251.18,733.36l-25.06,49.42a10.06,10.06,0,0,1-13.48,4.41l-.72-.36a10.07,10.07,0,0,1-4.41-13.49l25.06-49.41Z" transform="translate(34 -517)"/><path class="cls-16" d="M192.8,829.45a12.42,12.42,0,0,0-13.86-10.7l-5.58.72a12.42,12.42,0,0,0-10.7,13.86l4.39,34.06h30.64Z" transform="translate(34 -517)"/><path class="cls-17" d="M169.43,853l-11.69,2c-12.56,1.62-25.66-3.81-27.28-16.38h0a23.1,23.1,0,0,1,19.9-25.79L164.12,811c12.56-1.62,24.46-9.66,26.08,2.91l.83,11.19C187.33,834.74,182.74,848.73,169.43,853Z" transform="translate(34 -517)"/><path class="cls-6" d="M159.65,833.72A12.42,12.42,0,0,0,145.79,823l-5.58.72a12.42,12.42,0,0,0-10.7,13.86l3.83,29.79H164Z" transform="translate(34 -517)"/><path class="cls-8" d="M162,841.56h0c-19.64,2.53-37.27-7.52-37.27-7.52L117,774.1a28.36,28.36,0,0,1,24.44-31.67l15.3-2a28.39,28.39,0,0,1,31.68,24.45l7.72,59.94S181.67,839,162,841.56Z" transform="translate(34 -517)"/><path class="cls-14" d="M153.3,758h0a10.76,10.76,0,0,1-12-9.27l-1.23-9.55a10.75,10.75,0,0,1,9.26-12h0a10.76,10.76,0,0,1,12,9.26l1.23,9.56A10.77,10.77,0,0,1,153.3,758Z" transform="translate(34 -517)"/><path class="cls-15" d="M162.57,746.16a.76.76,0,0,0,0-.15l-1.23-9.56a10.76,10.76,0,0,0-12-9.26h0a10.75,10.75,0,0,0-9.3,11.52A30.22,30.22,0,0,0,162.57,746.16Z" transform="translate(34 -517)"/><path class="cls-14" d="M162.16,740h0a30.2,30.2,0,0,1-37-21.12l-6-22.13a30.19,30.19,0,0,1,21.12-37h0a30.19,30.19,0,0,1,37,21.12l6,22.13A30.2,30.2,0,0,1,162.16,740Z" transform="translate(34 -517)"/><path class="cls-18" d="M164.13,690.79,163,686.51A5.35,5.35,0,0,1,166.7,680h0a5.35,5.35,0,0,1,6.55,3.74l1.17,4.28" transform="translate(34 -517)"/><path class="cls-19" d="M124.21,715.28s-4.17,1.22-7.12-4.64-11.57-31.8-1.92-37.14a10,10,0,0,1,.93-9.14c3-4.78,6.22-10.29,20.63-14.13s38.71,4.21,46.24-8.56c0,0,12.47,30.49-4.78,35.59s-42.18,6.1-50.95,2.6l1.26,17.36S122.23,705.69,124.21,715.28Z" transform="translate(34 -517)"/><path class="cls-19" d="M124.21,715.28s-4.17,1.22-7.12-4.64-11.57-31.8-1.92-37.14a10,10,0,0,1,.93-9.14c3-4.78,6.22-10.29,20.63-14.13s38.71,4.21,46.24-8.56c0,0,12.47,30.49-4.78,35.59s-42.18,6.1-50.95,2.6l1.26,17.36S122.23,705.69,124.21,715.28Z" transform="translate(34 -517)"/><path class="cls-20" d="M183,641.67l-.12.17c1.34,11.29,1.13,27-9.7,30.25-17.25,5.1-42.18,6.11-51,2.61l6,18.67-1-13.51c8.77,3.5,33.7,2.49,51-2.6S183,641.67,183,641.67Z" transform="translate(34 -517)"/><circle class="cls-21" cx="135.91" cy="707.54" r="6.3" transform="translate(-343.92 -314.49) rotate(-34.62)"/><path class="cls-18" d="M139.51,697.51l-1.16-4.28a5.34,5.34,0,0,1,3.74-6.55h0a5.35,5.35,0,0,1,6.55,3.74l1.17,4.28" transform="translate(34 -517)"/><path class="cls-21" d="M156.91,689.47s4.83,4.64,7.53,4.28c2.92-.4,4.72-1.48,5.58,1.73C171.1,699.48,160.17,707.13,156.91,689.47Z" transform="translate(34 -517)"/><path class="cls-8" d="M139,711.24c3.26,10.58,15.59,16.49,26.69,13.46h0A20.29,20.29,0,0,0,180.12,700Z" transform="translate(34 -517)"/><path class="cls-13" d="M165.69,724.7A20.2,20.2,0,0,0,177,716.94a23.13,23.13,0,0,0-17-2,20.24,20.24,0,0,0-11.28,7.77,23.15,23.15,0,0,0,17,2Z" transform="translate(34 -517)"/><path class="cls-3" d="M179,700.59c0-.09-.07-.16-.1-.25l-38.56,10.53c0,.08,0,.17,0,.26a3.57,3.57,0,0,0,4.38,2.49L176.53,705A3.57,3.57,0,0,0,179,700.59Z" transform="translate(34 -517)"/><path class="cls-3" d="M152.51,724.34a23.06,23.06,0,0,0,13.18.36h0a20.27,20.27,0,0,0,10.57-6.84Z" transform="translate(34 -517)"/><path class="cls-14" d="M120.3,696.56s-10.75-1.33-9,7.37,13.2,9.81,13.2,9.81S126.76,706,120.3,696.56Z" transform="translate(34 -517)"/><path class="cls-15" d="M121.49,698.46c-2-.23-8.11-.56-7.16,4.42s8.12,6.94,10.55,7.5h0A23.38,23.38,0,0,0,121.49,698.46Z" transform="translate(34 -517)"/><path class="cls-14" d="M120.09,704.36a1.83,1.83,0,0,0,2,1.58l2.23-.28a23.82,23.82,0,0,0-1.09-3.54l-1.59.2A1.83,1.83,0,0,0,120.09,704.36Z" transform="translate(34 -517)"/><path class="cls-19" d="M128.73,710.63h0a3.32,3.32,0,0,1-4.06-2.32l-4-14.63a3.32,3.32,0,0,1,2.32-4.06h0a3.32,3.32,0,0,1,4.07,2.32l4,14.62A3.33,3.33,0,0,1,128.73,710.63Z" transform="translate(34 -517)"/><rect class="cls-14" x="240.9" y="704.07" width="4.94" height="11.57" rx="2.47" ry="2.47" transform="translate(113.95 -539.55) rotate(6.35)"/><rect class="cls-14" x="242.07" y="704.05" width="19.97" height="24.29" rx="8.37" ry="8.37" transform="translate(687.89 -445.01) rotate(51.34)"/><path class="cls-22" d="M259.44,729.8h0a4.16,4.16,0,0,1-5.48-2.09l-16.53-37a4.16,4.16,0,0,1,2.1-5.48h0a4.15,4.15,0,0,1,5.48,2.09l16.53,37A4.16,4.16,0,0,1,259.44,729.8Z" transform="translate(34 -517)"/><path class="cls-23" d="M223.42,700.16h0a4.87,4.87,0,0,1-6.42-2.45l-2.74-6.13a4.87,4.87,0,0,1,2.45-6.42h0a4.87,4.87,0,0,1,6.42,2.45l2.74,6.13A4.87,4.87,0,0,1,223.42,700.16Z" transform="translate(34 -517)"/><path class="cls-4" d="M285.85,663.24l12.89,28.81s-18.15-8-24.33-6.69c-7.83,1.6-10.75,8.57-27.64,16.12s-24.2-3.23-26.7-8.82-5.66-18.23,11.22-25.79,24-5.08,30.45-9.85c5.06-3.77,11.22-22.6,11.22-22.6Z" transform="translate(34 -517)"/><path class="cls-6" d="M237.58,684.83A129.63,129.63,0,0,1,231.06,667c-16.61,7.56-13.48,20.11-11,25.67s9.75,16.26,26.46,8.92A130.44,130.44,0,0,1,237.58,684.83Z" transform="translate(34 -517)"/><path class="cls-24" d="M293.33,680c-2.35-1-18.31-7.74-24-6.57-7.83,1.61-10.75,8.57-27.64,16.13-12.26,5.48-19.48,1.29-23.47-3.55a22.87,22.87,0,0,0,1.88,6.69c2.5,5.59,9.82,16.37,26.7,8.82s19.81-14.52,27.64-16.12c6.18-1.27,24.33,6.69,24.33,6.69Z" transform="translate(34 -517)"/><path class="cls-3" d="M299.7,694.2h0a2,2,0,0,1-2.61-1L271,634.88a2,2,0,0,1,1-2.61h0a2,2,0,0,1,2.61,1l26.09,58.32A2,2,0,0,1,299.7,694.2Z" transform="translate(34 -517)"/><path class="cls-14" d="M247.61,710.13h0a2.48,2.48,0,0,1,.39-3.48l7.51-6A2.48,2.48,0,0,1,259,701h0a2.47,2.47,0,0,1-.38,3.47l-7.52,6A2.47,2.47,0,0,1,247.61,710.13Z" transform="translate(34 -517)"/><path class="cls-14" d="M254.46,717.31h0a2.48,2.48,0,0,1,.39-3.48l7.51-6a2.47,2.47,0,0,1,3.47.39h0a2.47,2.47,0,0,1-.38,3.47l-7.52,6A2.47,2.47,0,0,1,254.46,717.31Z" transform="translate(34 -517)"/><rect class="cls-14" x="261.26" y="710.44" width="4.94" height="11.57" rx="2.47" ry="2.47" transform="translate(692.36 -454.07) rotate(51.35)"/><path class="cls-14" d="M250,714.53h0a2.49,2.49,0,0,1,.39-3.48l8.86-7.09a2.49,2.49,0,0,1,3.48.39h0a2.48,2.48,0,0,1-.39,3.47l-8.86,7.09A2.49,2.49,0,0,1,250,714.53Z" transform="translate(34 -517)"/><rect class="cls-14" x="244.55" y="700.26" width="4.94" height="11.57" rx="2.47" ry="2.47" transform="translate(1010.05 21.58) rotate(96.35)"/><path class="cls-25" d="M69.07,756.36l52.73,15.46a12.49,12.49,0,0,0,15.44-9.35l.25-1A12.49,12.49,0,0,0,128.11,746L74.2,735.4c-4.28-.84-8.74,2.88-10,8.24l-.19.78C62.65,749.78,64.89,755.13,69.07,756.36Z" transform="translate(34 -517)"/><path class="cls-14" d="M82.55,679.45,68.88,735.33c-1.36,5.56.47,10.83,4.06,11.71l.52.13c3.59.88,7.64-3,9-8.52l13.67-55.88Z" transform="translate(34 -517)"/><path class="cls-15" d="M82.55,679.45l-2.2,9a7.46,7.46,0,0,0,5.23,2.27l6.06-.06a6.34,6.34,0,0,0,2.71-.6l1.78-7.26Z" transform="translate(34 -517)"/><path class="cls-25" d="M76.29,690.56,63.13,744.39a10.05,10.05,0,0,0,7.36,12.12l.78.19a10.05,10.05,0,0,0,12.12-7.36l13.16-53.82Z" transform="translate(34 -517)"/><path class="cls-14" d="M93.68,674.71h0a2.48,2.48,0,0,0,2.55-2.39l.69-21.76a2.48,2.48,0,0,0-2.4-2.54h0A2.47,2.47,0,0,0,92,650.41l-.69,21.75A2.47,2.47,0,0,0,93.68,674.71Z" transform="translate(34 -517)"/><path class="cls-14" d="M84,674.82h0a2.48,2.48,0,0,0,2-2.88l-4-21.39a2.48,2.48,0,0,0-2.89-2h0a2.48,2.48,0,0,0-2,2.89l4,21.39A2.47,2.47,0,0,0,84,674.82Z" transform="translate(34 -517)"/><path class="cls-14" d="M78.85,675.06h0a2.48,2.48,0,0,0,1.59-3.12l-5-15.48a2.48,2.48,0,0,0-3.12-1.58h0A2.48,2.48,0,0,0,70.69,658l5,15.48A2.47,2.47,0,0,0,78.85,675.06Z" transform="translate(34 -517)"/><path class="cls-14" d="M88.05,675h0a2.48,2.48,0,0,0,2.42-2.53l-.55-24.93a2.48,2.48,0,0,0-2.52-2.42h0A2.48,2.48,0,0,0,85,647.68l.54,24.94A2.48,2.48,0,0,0,88.05,675Z" transform="translate(34 -517)"/><rect class="cls-14" x="95.75" y="672.49" width="4.94" height="11.57" rx="2.47" ry="2.47" transform="translate(-239.19 737.25) rotate(-138.95)"/><rect class="cls-14" x="76.81" y="664.82" width="19.97" height="24.29" rx="8.37" ry="8.37" transform="translate(331.98 808.97) rotate(169.28)"/><rect class="cls-14" x="99.07" y="665.9" width="4.94" height="11.57" rx="2.47" ry="2.47" transform="translate(98.92 833.02) rotate(-168.31)"/><circle class="cls-26" cx="341.62" cy="116.17" r="15.18"/><rect class="cls-27" x="298.24" y="632.74" width="7.26" height="10.44" transform="translate(-269.12 -242.5) rotate(-33.68)"/><rect class="cls-4" x="304.46" y="630.27" width="5.13" height="8.51" transform="translate(948.41 475.26) rotate(146.32)"/><path class="cls-3" d="M304.91,630.05l-1.5-6c-.1-.21.32-.7.85-.71h0c1.09,0,1.9.86,2.39,2l1.58,3.79a1.6,1.6,0,0,1-1.12,2.1h0A1.79,1.79,0,0,1,304.91,630.05Z" transform="translate(34 -517)"/><path class="cls-3" d="M313.89,626.55l-3.22,2.15a1.43,1.43,0,0,1-2-.4h0a1.42,1.42,0,0,1,.4-2l3.22-2.15a1.44,1.44,0,0,1,2,.39h0A1.43,1.43,0,0,1,313.89,626.55Z" transform="translate(34 -517)"/><path class="cls-3" d="M317,631.26l-3.22,2.15a1.44,1.44,0,0,1-2-.39h0a1.43,1.43,0,0,1,.4-2l3.22-2.15a1.43,1.43,0,0,1,2,.4h0A1.42,1.42,0,0,1,317,631.26Z" transform="translate(34 -517)"/><path class="cls-3" d="M318.18,633.9,315,636a1.42,1.42,0,0,1-2-.39h0a1.42,1.42,0,0,1,.4-2l3.22-2.15a1.41,1.41,0,0,1,2,.39h0A1.42,1.42,0,0,1,318.18,633.9Z" transform="translate(34 -517)"/><path class="cls-3" d="M316,628.56l-3.22,2.15a1.43,1.43,0,0,1-2-.4h0a1.42,1.42,0,0,1,.4-2l3.22-2.15a1.44,1.44,0,0,1,2,.39h0A1.43,1.43,0,0,1,316,628.56Z" transform="translate(34 -517)"/><rect class="cls-3" x="306.31" y="626.18" width="9.51" height="11.32" rx="2.67" ry="2.67" transform="translate(-264.18 -238.44) rotate(-33.68)"/><circle class="cls-8" cx="338.66" cy="668.7" r="18.62" transform="translate(-177.98 -356.87) rotate(-20.41)"/><rect class="cls-28" x="325.95" y="663.31" width="16.82" height="3.05" transform="translate(-351.27 -41.77) rotate(-48.54)"/><rect class="cls-28" x="329.42" y="672.48" width="16.82" height="3.05" transform="translate(174.64 -570.68) rotate(11.46)"/><circle class="cls-29" cx="340.11" cy="658.45" r="3.27" transform="translate(-366.89 153.52) rotate(-63.62)"/><path class="cls-29" d="M331.65,671.05a3.27,3.27,0,1,1-4.14-2.06A3.28,3.28,0,0,1,331.65,671.05Z" transform="translate(34 -517)"/><path class="cls-29" d="M350.47,675.15a3.26,3.26,0,1,1-4.13-2.06A3.26,3.26,0,0,1,350.47,675.15Z" transform="translate(34 -517)"/><circle class="cls-2" cx="352.41" cy="627.19" r="14.46" transform="translate(-95.53 -423.94) rotate(-12.73)"/><path class="cls-8" d="M344.16,624.83a4.38,4.38,0,1,1,8-3.52l1.34,3.05,3.05-1.34a4.38,4.38,0,1,1,3.52,8l-11.14,5h0Z" transform="translate(34 -517)"/><path class="cls-30" d="M361.43,627.64l-11.14,5h0l-4.79-11.24a4.49,4.49,0,0,1-.35-1.5,4.39,4.39,0,0,0-1,4.91L349,636.07h0l11.14-5a4.37,4.37,0,0,0,2.61-4.27A4.24,4.24,0,0,1,361.43,627.64Z" transform="translate(34 -517)"/><path class="cls-31" d="M376.29,649a6.44,6.44,0,1,1-8.16-4.06A6.44,6.44,0,0,1,376.29,649Z" transform="translate(34 -517)"/><path class="cls-8" d="M334.91,605.4a6.44,6.44,0,1,1-8.16-4.06A6.45,6.45,0,0,1,334.91,605.4Z" transform="translate(34 -517)"/><path class="cls-32" d="M308.28,664.22a4.84,4.84,0,1,1-6.12-3A4.84,4.84,0,0,1,308.28,664.22Z" transform="translate(34 -517)"/><path class="cls-32" d="M398.46,642a6.87,6.87,0,1,1-8.7-4.33A6.86,6.86,0,0,1,398.46,642Z" transform="translate(34 -517)"/><path class="cls-26" d="M381.22,628.06a2.74,2.74,0,1,1,1.72-3.46A2.74,2.74,0,0,1,381.22,628.06Z" transform="translate(34 -517)"/><path class="cls-2" d="M393.27,677a9.44,9.44,0,1,1-5.36-12.22A9.43,9.43,0,0,1,393.27,677Z" transform="translate(34 -517)"/><path class="cls-2" d="M377.89,608.47a4.72,4.72,0,1,1-2.68-6.11A4.72,4.72,0,0,1,377.89,608.47Z" transform="translate(34 -517)"/><path class="cls-31" d="M410.77,616.82a9.76,9.76,0,1,1-12.35-6.15A9.75,9.75,0,0,1,410.77,616.82Z" transform="translate(34 -517)"/><text x="34" y="-517"></text><text class="cls-33" transform="translate(515 116)">只要您有影响力，接受任务，<tspan x="0" y="40.8">参与推广，就能获得丰厚收益！</tspan></text><text class="cls-34" transform="translate(515 248)"> <tspan class="cls-35" x="7.4" y="0">• 接受合适的推广任务。</tspan><tspan class="cls-35"><tspan x="0" y="43" xml:space="preserve"> • 获得专属推广链接。</tspan><tspan x="0" y="86" xml:space="preserve"> • 每次下载/购买行为都将为您创造收益。</tspan><tspan x="0" y="129" xml:space="preserve"> • 于个人中心查看推广效果，收益情况！</tspan></tspan></text><text x="34" y="-517"></text></g></g></svg>